<?xml version="1.0" encoding="UTF-8"?>
<svg id="Layer_2" xmlns="http://www.w3.org/2000/svg" version="1.1" viewBox="0 0 1130.62 1044.54">
  <!-- Generator: Adobe Illustrator 30.2.1, SVG Export Plug-In . SVG Version: 2.1.1 Build 1)  -->
  <defs>
    <style>
      .st0 {
        fill: #080606;
      }
    </style>
  </defs>
  <path class="st0" d="M677.71,273.85l5.09,14.21c1.43.43,2.34.91,2.81,1.43-1.42-8.82-4.25-16.62-7.9-15.64h0Z"/>
  <path class="st0" d="M1082.81,542.81c-65.98-80.05-210.02-69-302.73-51.38-8.45-129.77,12.73-194.28,39.48-319.58-13.5-17.34-33.58-22.67-53.4-30.25-56.26-21.51-112.77-40.58-174.69-41.7-51.53-.93-103.05,3.54-152.61,16.03-26.75,6.74-52.24,23.48-75.77,33.31-31.84,13.31-28.1,37.62-24.02,65.09,15.09,101.48,19.39,153.11,25.21,258.96-93.4-50.53-281.37-76.42-331.82,43.4-19.05,45.24,4.36,97.71,43.94,121.91,24.51,14.99,46.46,30.47,73.95,37.7,65.77,17.3,132.48,15.35,201.74,4.88,5.08,114.54,6.71,128.12-81.74,205.79,21.11,28.22,39.78,10.85,88.87,32.51,59.57,26.28,76.07-11,121.67,2.5,9.24-1.44,12.24.46,9,5.69-4.22,6.29-14.74,8.91-16.09,18.42,31.18,10.81,58.17-.49,92.81-5.05,0,0,115.47,25.31,154.05,20.68,28.81-3.46,108.13-42.22,108.13-42.22,15.53-6.06,29.81-4.42,44.85,3.62,7.79-46.67-9.66-85.06-41.02-116.43-26.43-26.44-18.85-115.12-20.47-151.39,73.97,22.95,153.47,79.77,234.85,44.11,58.98-25.84,76.48-107.27,35.82-156.61h-.01ZM516.01,868.02c-4.01,18.18-29.48,32.9-47.71,23.01-40.89-22.2-19.27-72.04-65.03-107.15,25.18-52.15-.55-122.81,32.99-118.39,6.76,29.41,16.38,57.56,41.05,78.09-21.22,2.12-33.03,7.16-38.63,20.75-6.86,16.65-.02,31.16,15.52,41.32,10.1,6.6,19.79,9.6,32.73,5.93,7.82-2.22,13.06-11.31,24.47-21.66,8.8,25.59,10.6,51,4.62,78.11h-.01ZM610.69,543.2l-166.19,55.24-35.34,7.79c-17.72,3.91-34.82,12.07-53.29,13.72-8.06.72-15.69,4.81-24.04,4.81h-9.62c-1.93,6.17-9.27,4.81-14.42,4.81h-24.04c-14.41,8.3-38.47,8.3-52.89,0h-24.04c-3.81,0-8.65-.36-9.62-4.81-8.39.47-17.75,1.75-24.04-4.81-1.52-.31-3.32.37-4.81,0l-19.23-4.81c-4.96-1.24-9.2-4.14-14.42-4.81-6.13-.78-9.88-6.38-14.42-9.62-2.7-1.92-6.9-2.37-9.62-4.81-2.51-2.25-7.57-1.36-9.62-4.81-1.55-.25-3.3.41-4.81,0l4.81-4.81,9.62,9.62c4.95,2.45,8.16,2.45,9.62,0,4.29,6.87,9.09,10.08,14.42,9.62,3.18,3.92,9.12,6.02,14.42,4.81,3.73,4.94,13.95,6.1,19.23,4.81,2.48,4.03,5.86,2.37,9.62,0,6.77,7.12,28.9,11.09,33.65,4.81l19.23,4.81c20.35,3.89,46.8,4.33,67.31,0,10.45.86,16.86-.74,19.23-4.81,4,3.15,13.1,4.3,14.42,0,9.54.8,17.56-.8,24.04-4.81,13.58-.57,34.81-4.79,43.27-14.82,110.69-35.85,58.64-38.8,53.47-36.95-48.55,17.4-95.26,36.35-144.82,38.4l-35.7-.49c5.3-.86,9.69-2.6,11.66-5.38,13.41,1.05,106.56-14.55,105.76-30.42-.55-11.05-37.1-.69-47.68,2.37-7.56.15-15.65.32-23.75.87,5.06-1.61,9.74-3.81,13.74-6.77l12.71-4.09c5.18-1.67,6.1-15.03,2.09-14.57-43.78,4.92-83.66,8.55-124.92-4.32-6.12-1.91-15.94,10.86-10.5,14.53,14.55,9.84,32.7,13.08,48.51,13.56,9.94,3,21.73,4.98,33.36,5.06-4.99,1.15-9.76,2.63-14.13,4.55h-24.04l-33.65-3.79c-16.01,6.74-92.33-35.39-84.16-5.42,2.32,8.51,15.64,10.38,21.66,13.45.71,2.23,2,3.87,3.6,5.06-3.11-.6-6.25-.5-8.81.83-63.47-12.09-61.7-61.89-85.8-43.84-10.02,7.61-.86,23.33,9.27,28.88l4.81,4.81c2.55,2.02,2.55,2.88,0,4.81-.57-1.35.33-3.35,0-4.81-3.69-.55-6.84-2.41-9.62-4.81-8.73-7.52-14.86-17.23-14.71-28.85.11-8.89-3.54-20.74,2.67-30.29,21.04-32.35,56.57-46.96,93.47-51.57,76.61-9.56,144.66,9.18,211.8,43.51,44.63,22.83,96.46,25.45,143.9,28.83,2.86.17,5.73.3,8.59.47,37.36,1.51,74.85-3.85,112.16,1.11-7.66,3.59-14.21,6.39-19.4,8.11l.03.04ZM253.36,601.03l-22.49-.31c-1.13-.88-2.72-1.58-4.5-2.08,4.91.17,10.17-.85,14.12-2.73,2.54,2.41,7.34,4.14,12.88,5.12h0ZM220.75,597.8c-3.99-.13-7.78.75-9.11,2.91-1.61-2.28-3.21-2.28-4.81,0,1.54-6.44-4.32-7.82-9.62-4.81-.91-1.14-2.06-1.88-3.31-2.32,2.79-.01,5.74-1.01,8.12-2.49,1.93,3.15,6.73,4.75,14.42,4.81,1.23.85,2.72,1.44,4.3,1.89h0ZM181.76,591.56c1.67.68,3.72.61,5.83-.45.9.96,1.96,1.61,3.1,2.01-2.72.06-5.6,1.12-7.91,2.8.24-1.98-.2-3.38-1.03-4.35h0ZM179.88,590.31c-1.81-.59-4.23-.3-6.7.79-1.19-1.03-2.66-2.01-4.28-2.85,3.05.19,6.29-.48,9.09-1.96.24,1.69.93,3.04,1.9,4.01h0ZM692.41,273.39c-.87,4.51-2.82,9.31-5.84,14.41,8.36,2.57,8.28,6.32-.16,8.48,0,.05,0,.11.01.16,1.96,3.85,1.67,7.3-.14,10.44-.57,4.13-1.89,6.44-4.15,4.84,1.77-1.53,3.17-3.14,4.15-4.84.39-2.84.42-6.54.14-10.44-.02-.05-.03-.1-.06-.14.02,0,.03-.01.05-.02-.13-1.78-.33-3.59-.58-5.39-.37.66-1.32,1.38-2.86,2.15-11.68-3.23-29.4-6.1-39.61,3.6-4.65,4.42,4.29,12.25,5.83,15.18,6.99-.47,6.84,3.07-.05,5.79-2.68,1.28-5.38,2.75-6.57,4.58-1.62,2.51-2.21,7.78,1.42,9.66,5.95,3.09,13.69,5.83,19.6,5.27,4.81,1.35,6.11,4.26,3.9,8.74-5.16,8.37-8.45,17.44-14.29,29.46,8.73,5.91,16.89,6.74,24.81,8.81,6.19,6.91,3.76,8.76-4.81,5.85-4.7.2-10.18,0-13.98,3.39-2.84,2.54.25,7.55-.96,10.21,5.94,4.15,2.9,7.42-9.12,9.82-3.12,4.05-.73,7.43-1.11,10.13-1.52,10.74-24.99-2.19-27.62,11.54-1.67,8.7,8.6,10.48,14.34,11.51,4.2,1.53,4.13,3.3,0,5.31-40.41,1.06-82.67,7.72-124.99-1.28l-120.72-25.67-14.72-218.33c57.68-9.66,112.96-20.77,170.94-20.75,94.75.03,109.87,16.14,137.57,34.28,4.2,1.51,4.13,3.28,0,5.27-15.94,24.26-14.7,34.99,3.74,32.2l5.86,10.6c4.2,1.48,4.14,3.2,0,5.16l-.02.02ZM773.79,253.99l-18.6,82.29c-4.35,30.34-4.98,63.29-5.44,97.44-5.23,3.24-11.7-4.22-15.17-7.06-4.82-3.95,1.55-13.06-.65-17.68-4.95-10.42-8.13-20.75,3.4-27.9,10.11-6.28,5.55-14.61,8.19-21.02-6.27-1.96-13.41-3.91-19.54-8.52,7.4-14.41,16.12-21.48,25.03-35.17-7.63-6.09-15.43-9.97-22.92-10.43-7.46-4.82-4.91-5.93,3.14-8.01-7.98-5.3-5.41-8.62,3.87-5.5-6.5-6.99-5.77-14.13,2.19-21.42l-.46,27.28c1.15-.35,2.42-.69,3.92-1,30.73-29.26,15.21-29.46,14.23-32.86-4.86-13.21-7.09-28.63,9.86-19.87,4.05-.3,9.89,2.75,8.93,9.43h.02ZM1048.5,615.21c-10.44,31.6-37.83,56.71-71.98,57.46-81.19,1.77-147.63-46.71-103.89-32.22,11.65,3.86,25.89,1.25,34.25-12.98,2.14-3.65,10.21-4.93,12.68-7.51,2.68-2.79-2.6-14.55.86-16.57,10.5-3.03,17.53-13.49,25.04-18.2,13.59-8.53,31.34-5.61,35.77-23.29,4.12,7.24,1.53,13.23,6.56,16.51,4.12,2.69,10.03-2.66,13.32-8.93.42,5.97,1.61,12.58,8.78,18.18,8.44-6.79,22.46-16.93,32.28-12.94,10.93,6.96,10.66,27.37,6.33,40.49h0Z"/>
</svg>